<svg width="320" height="33" viewBox="0 0 320 33" fill="none" xmlns="http://www.w3.org/2000/svg">
<path d="M24.6406 22.0742C24.2539 25.3828 23.0293 27.9395 20.9668 29.7441C18.9186 31.5345 16.1901 32.4297 12.7812 32.4297C9.08594 32.4297 6.12109 31.1048 3.88672 28.4551C1.66667 25.8053 0.556641 22.2604 0.556641 17.8203V14.8125C0.556641 11.9049 1.07227 9.34831 2.10352 7.14258C3.14909 4.93685 4.62435 3.24674 6.5293 2.07227C8.43424 0.883464 10.64 0.289062 13.1465 0.289062C16.4694 0.289062 19.1335 1.22005 21.1387 3.08203C23.1439 4.92969 24.3112 7.49349 24.6406 10.7734H20.4941C20.1361 8.28125 19.3555 6.47656 18.1523 5.35938C16.9635 4.24219 15.2949 3.68359 13.1465 3.68359C10.5111 3.68359 8.44141 4.65755 6.9375 6.60547C5.44792 8.55339 4.70312 11.3249 4.70312 14.9199V17.9492C4.70312 21.3438 5.41211 24.0436 6.83008 26.0488C8.24805 28.054 10.2318 29.0566 12.7812 29.0566C15.0729 29.0566 16.8275 28.541 18.0449 27.5098C19.2767 26.4642 20.0931 24.6523 20.4941 22.0742H24.6406ZM47.9727 17.541H34.416V28.627H50.1641V32H30.291V0.71875H49.9492V4.11328H34.416V14.168H47.9727V17.541ZM58.3926 28.627H76.2891V32H53.5156V28.9062L70.6602 4.11328H53.7949V0.71875H75.6016V3.74805L58.3926 28.627ZM99.2129 23.8359H86.1074L83.1641 32H78.9102L90.8555 0.71875H94.4648L106.432 32H102.199L99.2129 23.8359ZM87.3535 20.4414H97.9883L92.6602 5.81055L87.3535 20.4414ZM129.463 4.11328H119.408V32H115.305V4.11328H105.271V0.71875H129.463V4.11328ZM156.061 4.11328H146.006V32H141.902V4.11328H131.869V0.71875H156.061V4.11328ZM178.383 17.541H164.826V28.627H180.574V32H160.701V0.71875H180.359V4.11328H164.826V14.168H178.383V17.541ZM194.926 18.0566C191.388 17.0397 188.81 15.7936 187.191 14.3184C185.587 12.8288 184.785 10.9954 184.785 8.81836C184.785 6.35482 185.766 4.32096 187.729 2.7168C189.705 1.09831 192.269 0.289062 195.42 0.289062C197.568 0.289062 199.48 0.704427 201.156 1.53516C202.846 2.36589 204.15 3.51172 205.066 4.97266C205.997 6.43359 206.463 8.0306 206.463 9.76367H202.316C202.316 7.87305 201.715 6.39062 200.512 5.31641C199.309 4.22786 197.611 3.68359 195.42 3.68359C193.386 3.68359 191.796 4.13477 190.65 5.03711C189.519 5.92513 188.953 7.16406 188.953 8.75391C188.953 10.0286 189.49 11.11 190.564 11.998C191.653 12.8717 193.493 13.6738 196.086 14.4043C198.693 15.1348 200.727 15.944 202.188 16.832C203.663 17.7057 204.751 18.7298 205.453 19.9043C206.169 21.0788 206.527 22.4609 206.527 24.0508C206.527 26.5859 205.539 28.6198 203.562 30.1523C201.586 31.6706 198.943 32.4297 195.635 32.4297C193.486 32.4297 191.481 32.0215 189.619 31.2051C187.757 30.3743 186.318 29.2428 185.301 27.8105C184.298 26.3783 183.797 24.7526 183.797 22.9336H187.943C187.943 24.8242 188.638 26.321 190.027 27.4238C191.431 28.5124 193.3 29.0566 195.635 29.0566C197.812 29.0566 199.48 28.6126 200.641 27.7246C201.801 26.8366 202.381 25.6263 202.381 24.0938C202.381 22.5612 201.844 21.3796 200.77 20.5488C199.695 19.7038 197.747 18.873 194.926 18.0566ZM235.875 32H231.729V17.541H215.959V32H211.834V0.71875H215.959V14.168H231.729V0.71875H235.875V32ZM267.264 17.3691C267.264 20.4342 266.748 23.1126 265.717 25.4043C264.686 27.6816 263.225 29.4219 261.334 30.625C259.443 31.8281 257.238 32.4297 254.717 32.4297C252.253 32.4297 250.069 31.8281 248.164 30.625C246.259 29.4076 244.777 27.6816 243.717 25.4473C242.671 23.1986 242.134 20.599 242.105 17.6484V15.3926C242.105 12.3848 242.628 9.72786 243.674 7.42188C244.719 5.11589 246.195 3.35417 248.1 2.13672C250.019 0.904948 252.21 0.289062 254.674 0.289062C257.18 0.289062 259.386 0.897786 261.291 2.11523C263.21 3.31836 264.686 5.07292 265.717 7.37891C266.748 9.67057 267.264 12.3418 267.264 15.3926V17.3691ZM263.16 15.3496C263.16 11.64 262.415 8.79688 260.926 6.82031C259.436 4.82943 257.352 3.83398 254.674 3.83398C252.067 3.83398 250.012 4.82943 248.508 6.82031C247.018 8.79688 246.252 11.5469 246.209 15.0703V17.3691C246.209 20.9642 246.961 23.793 248.465 25.8555C249.983 27.9036 252.067 28.9277 254.717 28.9277C257.381 28.9277 259.443 27.9609 260.904 26.0273C262.365 24.0794 263.117 21.2936 263.16 17.6699V15.3496ZM291.133 17.541H277.576V28.627H293.324V32H273.451V0.71875H293.109V4.11328H277.576V14.168H291.133V17.541ZM307.676 18.0566C304.138 17.0397 301.56 15.7936 299.941 14.3184C298.337 12.8288 297.535 10.9954 297.535 8.81836C297.535 6.35482 298.516 4.32096 300.479 2.7168C302.455 1.09831 305.019 0.289062 308.17 0.289062C310.318 0.289062 312.23 0.704427 313.906 1.53516C315.596 2.36589 316.9 3.51172 317.816 4.97266C318.747 6.43359 319.213 8.0306 319.213 9.76367H315.066C315.066 7.87305 314.465 6.39062 313.262 5.31641C312.059 4.22786 310.361 3.68359 308.17 3.68359C306.136 3.68359 304.546 4.13477 303.4 5.03711C302.269 5.92513 301.703 7.16406 301.703 8.75391C301.703 10.0286 302.24 11.11 303.314 11.998C304.403 12.8717 306.243 13.6738 308.836 14.4043C311.443 15.1348 313.477 15.944 314.938 16.832C316.413 17.7057 317.501 18.7298 318.203 19.9043C318.919 21.0788 319.277 22.4609 319.277 24.0508C319.277 26.5859 318.289 28.6198 316.312 30.1523C314.336 31.6706 311.693 32.4297 308.385 32.4297C306.236 32.4297 304.231 32.0215 302.369 31.2051C300.507 30.3743 299.068 29.2428 298.051 27.8105C297.048 26.3783 296.547 24.7526 296.547 22.9336H300.693C300.693 24.8242 301.388 26.321 302.777 27.4238C304.181 28.5124 306.05 29.0566 308.385 29.0566C310.562 29.0566 312.23 28.6126 313.391 27.7246C314.551 26.8366 315.131 25.6263 315.131 24.0938C315.131 22.5612 314.594 21.3796 313.52 20.5488C312.445 19.7038 310.497 18.873 307.676 18.0566Z" fill="white"/>
</svg>
